# xmcd
#
# Track frame offsets:
# 150
# 47718
# 137869
#
# Disc length: 2588 seconds
#
# Revision: 0
# Processed by: cddbd v1.5.2PL0 Copyright (c) Steve Scherf et al.
# Submitted via: Audion 3.0.2 (http://www.panic.com/audion/)
#
DISCID=250a1a03
DTITLE=Bob Berg and Mike Stern - Atina Italy18.7.90
DYEAR=1900
DGENRE=
TTITLE0=1
TTITLE1=2
TTITLE2=3
EXTD=
EXTT0=
EXTT1=
EXTT2=
PLAYORDER=
